<svg width="125" height="48" viewBox="0 0 125 48" fill="none" xmlns="http://www.w3.org/2000/svg">
<path d="M106.318 33.1121C107.168 32.3343 107.922 31.4682 108.528 30.5339C110.727 27.1415 110.379 23.885 108.485 21.2025C109.358 20.6013 110.141 19.8356 110.718 18.9453C111.554 17.6564 111.635 16.647 111.248 15.778C112.393 15.962 114.094 15.8862 114.78 15.7393C115.83 15.5155 116.545 14.6963 116.377 13.9087C116.209 13.121 115.222 12.6644 114.171 12.8884C113.349 13.0634 111.244 13.9209 110.445 14.6633C109.826 14.0368 108.986 13.4633 108.068 12.8678C107.15 12.2729 106.283 11.7396 105.46 11.4308C105.811 10.3975 105.734 8.12673 105.559 7.30466C105.334 6.25491 104.514 5.53933 103.727 5.70719C102.939 5.87639 102.483 6.86245 102.707 7.91302C102.854 8.59986 103.479 10.1839 104.114 11.1533C103.162 11.1537 102.273 11.6404 101.438 12.9293C100.86 13.8204 100.482 14.8475 100.289 15.8899C97.0668 15.2554 93.9521 16.2676 91.7531 19.66C91.1474 20.5943 90.6648 21.6373 90.3017 22.73L90.2896 22.7488L90.2961 22.7495C88.8402 27.1563 89.4083 32.4177 92.4961 35.1058L92.4543 35.1667C91.5785 36.5176 91.2343 37.8495 91.6846 38.1414C92.1357 38.4338 93.2102 37.5753 94.0859 36.2244C94.0996 36.2032 94.1101 36.1834 94.1231 36.1617C97.8376 37.8829 102.873 36.2541 106.302 33.1261L106.305 33.1317L106.318 33.1121Z" fill="#31373D"/>
<path d="M97.9148 22.4964L103.423 26.0671C102.983 24.133 102.812 22.3354 103.003 21.1634L102.563 20.8779C101.571 21.5305 99.86 22.1086 97.9148 22.4964ZM91.4134 22.9134C91.02 22.875 90.6456 22.8198 90.2891 22.7497C89.9059 23.9127 89.6688 25.1346 89.576 26.3538L103.306 35.2541C104.381 34.6716 105.401 33.9569 106.305 33.1318C106.095 32.8349 105.892 32.5156 105.696 32.1718L91.4134 22.9134ZM90.1167 31.3358C90.7029 33.1446 91.7339 34.6998 93.2701 35.6956C94.8071 36.692 96.6469 36.9977 98.5383 36.7949L90.1167 31.3358Z" fill="#FFCC4D"/>
<path d="M103.573 19.8018C102.174 21.9599 92.6257 22.6446 89.2467 20.4541C85.8676 18.2637 85.6429 15.2894 87.0418 13.1314C88.4402 10.9741 90.9331 10.4493 94.3122 12.6397C97.6916 14.8315 104.971 17.6454 103.573 19.8018ZM103.573 19.8018C102.174 21.9599 105.446 30.9552 108.826 33.1462C112.206 35.3372 115.012 34.3275 116.411 32.1694C117.809 30.0122 117.272 27.5227 113.892 25.3318C110.512 23.1408 104.971 17.6454 103.573 19.8018Z" fill="#CCD6DD"/>
<path d="M87.6159 15.8204C87.1656 15.5285 87.0363 14.9271 87.3286 14.4763C87.6198 14.027 88.2204 13.8977 88.6713 14.1888C88.7104 14.2141 92.7457 16.7489 101.832 18.1878C102.364 18.2698 102.725 18.769 102.64 19.2992C102.557 19.8299 102.059 20.1912 101.529 20.1073C91.9784 18.5939 87.7897 15.933 87.6159 15.8204ZM113.722 32.7431C113.548 32.6305 109.41 29.8935 104.129 21.7935C103.835 21.3438 103.963 20.7424 104.412 20.4487C104.862 20.1567 105.465 20.2839 105.757 20.7334C110.781 28.4399 114.741 31.0882 114.781 31.1141C115.229 31.408 115.356 32.0099 115.064 32.4586C114.771 32.9067 114.171 33.0345 113.722 32.7431Z" fill="#99AAB5"/>
<path d="M21.8403 37H20.4453L7.67333 17.532V37H6.27833V15.269H7.67333L20.4453 34.675V15.269H21.8403V37ZM42.1141 27.452C42.1141 28.196 42.0934 28.754 42.0521 29.126H27.5131C27.5544 30.6347 27.8851 31.9057 28.5051 32.939C29.1251 33.9723 29.9414 34.7473 30.9541 35.264C31.9668 35.7807 33.0724 36.039 34.2711 36.039C35.9244 36.039 37.3091 35.636 38.4251 34.83C39.5411 34.0033 40.2438 32.8873 40.5331 31.482H41.9901C41.6594 33.1973 40.8121 34.5923 39.4481 35.667C38.0841 36.721 36.3584 37.248 34.2711 37.248C32.7004 37.248 31.2951 36.8967 30.0551 36.194C28.8151 35.4913 27.8438 34.489 27.1411 33.187C26.4384 31.8643 26.0871 30.3247 26.0871 28.568C26.0871 26.8113 26.4281 25.282 27.1101 23.98C27.8128 22.678 28.7841 21.686 30.0241 21.004C31.2641 20.3013 32.6798 19.95 34.2711 19.95C35.8831 19.95 37.2781 20.3013 38.4561 21.004C39.6548 21.686 40.5641 22.6057 41.1841 23.763C41.8041 24.8997 42.1141 26.1293 42.1141 27.452ZM40.7191 27.979C40.7811 26.491 40.5124 25.2303 39.9131 24.197C39.3344 23.1637 38.5388 22.399 37.5261 21.903C36.5134 21.3863 35.4181 21.128 34.2401 21.128C33.0621 21.128 31.9668 21.3863 30.9541 21.903C29.9621 22.399 29.1458 23.1637 28.5051 24.197C27.8851 25.2303 27.5544 26.491 27.5131 27.979H40.7191ZM68.3401 20.167L63.0391 37H61.7061L56.3431 22.089L50.9491 37H49.6161L44.3151 20.167H45.7721L50.2981 35.419L55.6921 20.167H57.0251L62.3881 35.357L66.9141 20.167H68.3401ZM77.0075 37.248C75.1268 37.248 73.5872 36.8347 72.3885 36.008C71.2105 35.1813 70.5492 34.0033 70.4045 32.474H71.8305C71.9338 33.5693 72.4298 34.4373 73.3185 35.078C74.2278 35.7187 75.4575 36.039 77.0075 36.039C78.2888 36.039 79.3015 35.7187 80.0455 35.078C80.8102 34.4167 81.1925 33.6107 81.1925 32.66C81.1925 31.9987 80.9858 31.4613 80.5725 31.048C80.1798 30.614 79.6838 30.2833 79.0845 30.056C78.4852 29.8287 77.6688 29.5807 76.6355 29.312C75.3955 28.9813 74.3932 28.661 73.6285 28.351C72.8638 28.0203 72.2128 27.5347 71.6755 26.894C71.1382 26.2533 70.8695 25.3957 70.8695 24.321C70.8695 23.5357 71.1072 22.8123 71.5825 22.151C72.0578 21.469 72.7192 20.9317 73.5665 20.539C74.4138 20.1463 75.3748 19.95 76.4495 19.95C78.2062 19.95 79.6218 20.3943 80.6965 21.283C81.7918 22.151 82.3808 23.36 82.4635 24.91H81.0685C81.0065 23.794 80.5725 22.8847 79.7665 22.182C78.9605 21.4793 77.8445 21.128 76.4185 21.128C75.2198 21.128 74.2278 21.438 73.4425 22.058C72.6572 22.678 72.2645 23.4323 72.2645 24.321C72.2645 25.1063 72.4815 25.747 72.9155 26.243C73.3702 26.7183 73.9178 27.0903 74.5585 27.359C75.2198 27.607 76.0878 27.8757 77.1625 28.165C78.3405 28.475 79.2808 28.785 79.9835 29.095C80.7068 29.3843 81.3165 29.8183 81.8125 30.397C82.3085 30.955 82.5565 31.7093 82.5565 32.66C82.5565 33.528 82.3188 34.3133 81.8435 35.016C81.3682 35.7187 80.7068 36.2663 79.8595 36.659C79.0122 37.0517 78.0615 37.248 77.0075 37.248Z" fill="black"/>
</svg>
